<mxfile host="app.diagrams.net" modified="2023-04-06T12:15:40.552Z" agent="Mozilla/5.0 (Macintosh; Intel Mac OS X 10_15_7) AppleWebKit/537.36 (KHTML, like Gecko) Chrome/111.0.0.0 Safari/537.36" etag="l-UeiYimfUNdtmiJUOKj" version="21.1.4" type="github">
  <diagram name="Page-1" id="hzYzspmHcToFLVnpzh75">
    <mxGraphModel dx="2388" dy="1368" grid="1" gridSize="12" guides="1" tooltips="1" connect="1" arrows="1" fold="1" page="1" pageScale="1" pageWidth="827" pageHeight="1169" math="0" shadow="0">
      <root>
        <mxCell id="0" />
        <mxCell id="1" parent="0" />
        <mxCell id="T7hlSV2YIh6SdqNKYndl-16" value="" style="rounded=0;whiteSpace=wrap;html=1;" vertex="1" parent="1">
          <mxGeometry x="670" y="100" width="300" height="540" as="geometry" />
        </mxCell>
        <mxCell id="T7hlSV2YIh6SdqNKYndl-5" value="" style="shape=image;verticalLabelPosition=bottom;labelBackgroundColor=default;verticalAlign=top;aspect=fixed;imageAspect=0;image=https://raw.githubusercontent.com/ecceman/affinity/48d4a4fa87957cb542678ed5952227028b8657f5/svg/square/blue/sq_switch_blue.svg;" vertex="1" parent="1">
          <mxGeometry x="280" y="290" width="150" height="150" as="geometry" />
        </mxCell>
        <mxCell id="T7hlSV2YIh6SdqNKYndl-6" value="&lt;font style=&quot;font-size: 17px;&quot;&gt;SW-Server&lt;/font&gt;" style="text;html=1;strokeColor=none;fillColor=none;align=center;verticalAlign=middle;whiteSpace=wrap;rounded=0;" vertex="1" parent="1">
          <mxGeometry x="280" y="450" width="150" height="30" as="geometry" />
        </mxCell>
        <mxCell id="T7hlSV2YIh6SdqNKYndl-7" value="" style="shape=image;verticalLabelPosition=bottom;labelBackgroundColor=default;verticalAlign=top;aspect=fixed;imageAspect=0;image=https://raw.githubusercontent.com/ecceman/affinity/48d4a4fa87957cb542678ed5952227028b8657f5/svg/square/green/sq_server_green.svg;" vertex="1" parent="1">
          <mxGeometry x="745" y="120" width="150" height="150" as="geometry" />
        </mxCell>
        <mxCell id="T7hlSV2YIh6SdqNKYndl-8" value="" style="shape=image;verticalLabelPosition=bottom;labelBackgroundColor=default;verticalAlign=top;aspect=fixed;imageAspect=0;image=https://raw.githubusercontent.com/ecceman/affinity/48d4a4fa87957cb542678ed5952227028b8657f5/svg/square/green/sq_server_green.svg;" vertex="1" parent="1">
          <mxGeometry x="745" y="295" width="150" height="150" as="geometry" />
        </mxCell>
        <mxCell id="T7hlSV2YIh6SdqNKYndl-9" value="" style="shape=image;verticalLabelPosition=bottom;labelBackgroundColor=default;verticalAlign=top;aspect=fixed;imageAspect=0;image=https://raw.githubusercontent.com/ecceman/affinity/48d4a4fa87957cb542678ed5952227028b8657f5/svg/square/green/sq_server_green.svg;" vertex="1" parent="1">
          <mxGeometry x="745" y="470" width="150" height="150" as="geometry" />
        </mxCell>
        <mxCell id="T7hlSV2YIh6SdqNKYndl-11" value="&lt;font style=&quot;font-size: 17px;&quot;&gt;VLAN 100&lt;/font&gt;" style="text;html=1;strokeColor=none;fillColor=none;align=left;verticalAlign=middle;whiteSpace=wrap;rounded=0;" vertex="1" parent="1">
          <mxGeometry x="677" y="70" width="150" height="30" as="geometry" />
        </mxCell>
        <mxCell id="T7hlSV2YIh6SdqNKYndl-12" value="" style="endArrow=classic;html=1;rounded=0;entryX=0;entryY=0.5;entryDx=0;entryDy=0;endSize=8;startSize=8;" edge="1" parent="1" target="T7hlSV2YIh6SdqNKYndl-7">
          <mxGeometry width="50" height="50" relative="1" as="geometry">
            <mxPoint x="480" y="320" as="sourcePoint" />
            <mxPoint x="600" y="270" as="targetPoint" />
          </mxGeometry>
        </mxCell>
        <mxCell id="T7hlSV2YIh6SdqNKYndl-13" value="" style="endArrow=none;html=1;rounded=0;exitX=1;exitY=0.5;exitDx=0;exitDy=0;entryX=0;entryY=0.5;entryDx=0;entryDy=0;" edge="1" parent="1" source="T7hlSV2YIh6SdqNKYndl-5" target="T7hlSV2YIh6SdqNKYndl-8">
          <mxGeometry width="50" height="50" relative="1" as="geometry">
            <mxPoint x="440" y="338" as="sourcePoint" />
            <mxPoint x="740" y="380" as="targetPoint" />
          </mxGeometry>
        </mxCell>
        <mxCell id="T7hlSV2YIh6SdqNKYndl-14" value="" style="endArrow=none;html=1;rounded=0;entryX=0;entryY=0.5;entryDx=0;entryDy=0;" edge="1" parent="1" target="T7hlSV2YIh6SdqNKYndl-9">
          <mxGeometry width="50" height="50" relative="1" as="geometry">
            <mxPoint x="480" y="400" as="sourcePoint" />
            <mxPoint x="677" y="415" as="targetPoint" />
          </mxGeometry>
        </mxCell>
        <mxCell id="T7hlSV2YIh6SdqNKYndl-15" value="&lt;font style=&quot;font-size: 17px;&quot;&gt;Vlan 100&lt;/font&gt;" style="text;html=1;strokeColor=none;fillColor=none;align=center;verticalAlign=middle;whiteSpace=wrap;rounded=0;" vertex="1" parent="1">
          <mxGeometry x="280" y="260" width="150" height="30" as="geometry" />
        </mxCell>
        <mxCell id="T7hlSV2YIh6SdqNKYndl-22" value="" style="endArrow=none;html=1;rounded=0;exitX=1.001;exitY=0.196;exitDx=0;exitDy=0;exitPerimeter=0;" edge="1" parent="1" source="T7hlSV2YIh6SdqNKYndl-23">
          <mxGeometry width="50" height="50" relative="1" as="geometry">
            <mxPoint x="430" y="360" as="sourcePoint" />
            <mxPoint x="480" y="320" as="targetPoint" />
          </mxGeometry>
        </mxCell>
        <mxCell id="T7hlSV2YIh6SdqNKYndl-25" value="" style="endArrow=none;html=1;rounded=0;exitX=1.001;exitY=0.196;exitDx=0;exitDy=0;exitPerimeter=0;" edge="1" parent="1" source="T7hlSV2YIh6SdqNKYndl-5" target="T7hlSV2YIh6SdqNKYndl-23">
          <mxGeometry width="50" height="50" relative="1" as="geometry">
            <mxPoint x="430" y="319" as="sourcePoint" />
            <mxPoint x="480" y="320" as="targetPoint" />
          </mxGeometry>
        </mxCell>
        <mxCell id="T7hlSV2YIh6SdqNKYndl-23" value="&lt;font style=&quot;font-size: 17px;&quot;&gt;Fa0/1&lt;/font&gt;" style="text;html=1;strokeColor=none;fillColor=none;align=center;verticalAlign=middle;whiteSpace=wrap;rounded=0;" vertex="1" parent="1">
          <mxGeometry x="380" y="290" width="150" height="30" as="geometry" />
        </mxCell>
        <mxCell id="T7hlSV2YIh6SdqNKYndl-26" value="&lt;font style=&quot;font-size: 17px;&quot;&gt;Fa0/2&lt;br&gt;&lt;/font&gt;" style="text;html=1;strokeColor=none;fillColor=none;align=center;verticalAlign=middle;whiteSpace=wrap;rounded=0;" vertex="1" parent="1">
          <mxGeometry x="380" y="340" width="150" height="30" as="geometry" />
        </mxCell>
        <mxCell id="T7hlSV2YIh6SdqNKYndl-27" value="&lt;font style=&quot;font-size: 17px;&quot;&gt;Fa0/3&lt;/font&gt;" style="text;html=1;strokeColor=none;fillColor=none;align=center;verticalAlign=middle;whiteSpace=wrap;rounded=0;" vertex="1" parent="1">
          <mxGeometry x="380" y="400" width="150" height="30" as="geometry" />
        </mxCell>
        <mxCell id="T7hlSV2YIh6SdqNKYndl-28" value="" style="endArrow=none;html=1;rounded=0;" edge="1" parent="1">
          <mxGeometry width="50" height="50" relative="1" as="geometry">
            <mxPoint x="430" y="400" as="sourcePoint" />
            <mxPoint x="480" y="400" as="targetPoint" />
          </mxGeometry>
        </mxCell>
        <mxCell id="T7hlSV2YIh6SdqNKYndl-32" value="" style="endArrow=none;html=1;rounded=0;entryX=0.668;entryY=1.019;entryDx=0;entryDy=0;entryPerimeter=0;exitX=0.32;exitY=1.056;exitDx=0;exitDy=0;exitPerimeter=0;" edge="1" parent="1" source="T7hlSV2YIh6SdqNKYndl-23" target="T7hlSV2YIh6SdqNKYndl-23">
          <mxGeometry width="50" height="50" relative="1" as="geometry">
            <mxPoint x="470" y="410" as="sourcePoint" />
            <mxPoint x="520" y="360" as="targetPoint" />
          </mxGeometry>
        </mxCell>
        <mxCell id="T7hlSV2YIh6SdqNKYndl-35" value="&lt;font style=&quot;font-size: 17px;&quot;&gt;Fa0&lt;br&gt;&lt;/font&gt;" style="text;html=1;strokeColor=none;fillColor=none;align=center;verticalAlign=middle;whiteSpace=wrap;rounded=0;" vertex="1" parent="1">
          <mxGeometry x="520" y="340" width="150" height="30" as="geometry" />
        </mxCell>
      </root>
    </mxGraphModel>
  </diagram>
</mxfile>
